HIERARCHY
ROOT Hips
{
	OFFSET -3.958830 18.904000 13.208200
	CHANNELS 6 Xposition Yposition Zposition Zrotation Yrotation Xrotation 
	JOINT LHipJoint
	{
		OFFSET 0.000000 0.000000 0.000000
		CHANNELS 3 Zrotation Yrotation Xrotation
		JOINT LeftUpLeg
		{
			OFFSET 1.800000 -1.400000 0.085000
			CHANNELS 3 Zrotation Yrotation Xrotation
			JOINT LeftLeg
			{
				OFFSET 2.215000 -6.000000 0.000000
				CHANNELS 3 Zrotation Yrotation Xrotation
				JOINT LeftFoot
				{
					OFFSET 2.500000 -6.900000 0.000000
					CHANNELS 3 Zrotation Yrotation Xrotation
					JOINT LeftToeBase
					{
						OFFSET 0.200000 -0.500000 1.950000
						CHANNELS 3 Zrotation Yrotation Xrotation
						End Site
						{
							OFFSET 0.000000 0.000000 0.000000
						}
					}
				}
			}
		}
	}
	JOINT RHipJoint
	{
		OFFSET 0.000000 0.000000 0.000000
		CHANNELS 3 Zrotation Yrotation Xrotation
		JOINT RightUpLeg
		{
			OFFSET -1.800000 -1.400000 0.085000
			CHANNELS 3 Zrotation Yrotation Xrotation
			JOINT RightLeg
			{
				OFFSET -2.215000 -6.000000 0.000000
				CHANNELS 3 Zrotation Yrotation Xrotation
				JOINT RightFoot
				{
					OFFSET -2.500000 -6.900000 0.000000
					CHANNELS 3 Zrotation Yrotation Xrotation
					JOINT RightToeBase
					{
						OFFSET -0.200000 -0.500000 1.950000
						CHANNELS 3 Zrotation Yrotation Xrotation
						End Site
						{
							OFFSET 0.000000 0.000000 0.000000
						}
					}
				}
			}
		}
	}
	JOINT LowerBack
	{
		OFFSET 0.000000 0.000000 0.000000
		CHANNELS 3 Zrotation Yrotation Xrotation
		JOINT Spine
		{
			OFFSET -0.087000 1.940000 -0.288900
			CHANNELS 3 Zrotation Yrotation Xrotation
			JOINT Spine1
			{
				OFFSET 0.000000 1.950000 0.060000
				CHANNELS 3 Zrotation Yrotation Xrotation
				JOINT Neck
				{
					OFFSET 0.000000 0.000000 0.000000
					CHANNELS 3 Zrotation Yrotation Xrotation
					JOINT Neck1
					{
						OFFSET 0.000000 1.600000 0.340000
						CHANNELS 3 Zrotation Yrotation Xrotation
						JOINT Head
						{
							OFFSET 0.000000 1.667000 -0.240000
							CHANNELS 3 Zrotation Yrotation Xrotation
							End Site
							{
								OFFSET 0.000000 0.000000 0.000000
							}
						}
					}
				}
				JOINT LeftShoulder
				{
					OFFSET 0.000000 0.000000 0.000000
					CHANNELS 3 Zrotation Yrotation Xrotation
					JOINT LeftArm
					{
						OFFSET 2.700000 1.550000 -0.730000
						CHANNELS 3 Zrotation Yrotation Xrotation
						JOINT LeftForeArm
						{
							OFFSET 5.450000 0.000000 0.000000
							CHANNELS 3 Zrotation Yrotation Xrotation
							JOINT LeftHand
							{
								OFFSET 3.450000 0.000000 0.000000
								CHANNELS 3 Zrotation Yrotation Xrotation
								JOINT LeftHandIndex1
								{
									OFFSET 0.750000 0.000000 0.000000
									CHANNELS 3 Zrotation Yrotation Xrotation
									End Site
									{
										OFFSET 0.000000 0.000000 0.000000
									}
								}
							}
						}
					}
				}
				JOINT RightShoulder
				{
					OFFSET 0.000000 0.000000 0.000000
					CHANNELS 3 Zrotation Yrotation Xrotation
					JOINT RightArm
					{
						OFFSET -2.700000 1.550000 -0.730000
						CHANNELS 3 Zrotation Yrotation Xrotation
						JOINT RightForeArm
						{
							OFFSET -5.450000 0.000000 0.000000
							CHANNELS 3 Zrotation Yrotation Xrotation
							JOINT RightHand
							{
								OFFSET -3.450000 0.000000 0.000000
								CHANNELS 3 Zrotation Yrotation Xrotation
								JOINT RightHandIndex1
								{
									OFFSET -0.750000 0.000000 0.000000
									CHANNELS 3 Zrotation Yrotation Xrotation
									End Site
									{
										OFFSET 0.000000 0.000000 0.000000
									}
								}
							}
						}
					}
				}
			}
		}
	}
}
MOTION
Frames: 7
Frame Time: 0.016667
0.110700 16.934390 -1.909820 1.962814 11.729207 -0.994674 -14.588626 12.462873 3.396797 2.960050 -1.001002 -7.127544 -8.653102 3.839123 0.181787 -0.496408 3.816590 3.302464 -0.593240 -0.875850 -0.199540 18.510445 -12.081573 3.209492 -17.028984 -0.340224 -6.056411 2.650734 -4.644160 1.759564 -0.407903 -4.015515 2.812253 -0.506610 0.355590 0.317880 -5.011015 1.739710 -8.651312 12.060984 -0.058711 22.367781 -4.303499 4.453702 -19.093005 -9.899630 10.321791 -15.672958 22.840535 -8.900237 52.487825 -7.533310 3.905510 1.471260 5.440826 -15.987291 4.696215 38.364868 2.031267 -2.179718 125.585706 23.610430 43.382849 -4.359414 2.929144 0.716290 0.158460 0.145300 -0.191590 10.074559 6.363956 9.194616 69.182720 -3.931404 -8.213359 26.296049 25.745494 3.079323 2.336451 -0.849747 -0.420230 0.223450 0.606420 -0.173460 
0.109930 16.944360 -1.913880 2.025253 11.782122 -0.923691 -14.580720 12.448642 3.419151 2.911190 -1.035765 -6.995580 -8.746309 3.799632 -0.105150 -0.523063 3.846565 3.293742 -0.573870 -0.879390 -0.174290 18.516584 -12.074559 3.226052 -17.017983 -0.331042 -6.046562 2.550813 -4.610644 1.470633 -0.425306 -4.005698 2.811656 -0.502690 0.342560 0.321280 -5.030478 1.771707 -8.674120 12.245293 -0.402825 22.574592 -4.762501 4.241371 -20.171103 -10.036915 10.134131 -15.756777 22.544439 -9.687392 53.590550 -8.094980 3.253010 1.295800 5.506210 -15.741864 4.624162 38.620526 1.162853 -1.894523 126.160585 23.353717 43.670492 -4.335149 2.895790 0.755180 0.141740 0.158740 -0.188630 10.082205 6.275811 9.387630 69.842034 -4.409639 -8.273166 25.910092 25.754020 3.042547 2.322297 -0.828834 -0.431960 0.235690 0.605240 -0.188140 
0.108020 16.952710 -1.911640 2.141212 12.646045 -0.652097 -14.548448 12.360982 3.420136 2.764479 -1.121479 -6.923302 -8.733047 3.712041 -0.565948 -0.550264 3.879535 3.298011 -0.591710 -0.928160 -0.170920 18.558124 -12.092091 3.257789 -17.079935 -0.340381 -5.777299 2.622168 -4.622840 1.061522 -0.434979 -4.068516 2.781957 -0.516220 0.371150 0.328290 -5.155359 1.967694 -8.701603 12.874064 -0.666372 22.057816 -5.813285 4.077140 -20.832559 -10.501365 10.309644 -15.813247 22.965961 -10.428866 53.640010 -7.879240 2.383440 2.316810 5.858582 -15.656304 4.605687 37.540739 -1.452502 -2.173738 127.626265 22.307312 42.935265 -4.341651 2.879343 0.768520 0.152350 0.142130 -0.192050 10.376246 5.818930 9.518321 71.304746 -5.502843 -8.894123 24.501247 26.022697 2.729806 2.308030 -0.797916 -0.457380 0.250370 0.626330 -0.194930 
0.106250 16.956160 -1.926000 2.219871 13.492922 -1.372669 -14.560780 12.332595 3.391704 2.792306 -1.006614 -6.070000 -8.663546 3.751880 -0.642398 -0.542502 3.964698 3.268462 -0.606470 -0.949520 -0.187400 18.566217 -12.061234 3.270973 -17.227081 -0.514794 -4.586407 2.732772 -4.726467 0.742779 -0.460286 -4.217923 2.728009 -0.520840 0.384530 0.338800 -5.172884 1.918013 -8.709335 13.104668 -0.440977 22.058492 -5.388553 4.502306 -18.858988 -10.695284 10.236366 -16.277237 22.591902 -11.040338 54.087329 -8.283730 1.484960 3.103200 5.539639 -17.207513 4.924575 37.284179 -3.407993 -3.043033 130.834703 21.152280 43.037918 -4.350206 2.894107 0.758240 0.162260 0.131370 -0.198710 11.378964 7.160723 9.979471 71.115940 -5.810938 -10.247307 23.036348 27.617303 2.332429 2.289155 -0.790411 -0.456630 0.251290 0.648550 -0.188160 
0.106940 16.951080 -1.946690 2.093488 14.865820 -2.821264 -14.526031 12.180549 3.275804 3.110443 -0.769333 -4.615147 -8.704253 3.922940 -0.287512 -0.538981 4.089461 3.235794 -0.613170 -0.936100 -0.216940 18.650286 -12.097470 3.292749 -17.381899 -0.851962 -2.539865 2.893300 -4.931815 0.346271 -0.506602 -4.500893 2.657016 -0.494550 0.417180 0.323260 -5.374439 2.177380 -8.675434 14.438257 -0.380734 22.310708 -5.859105 5.106517 -15.083011 -10.974480 10.439532 -16.042914 22.785036 -11.657696 52.795792 -8.053670 0.381140 2.826930 5.511066 -18.416298 5.036300 36.624047 -5.719044 -4.322576 132.096649 21.167085 42.715624 -4.377600 2.888908 0.731460 0.185860 0.103530 -0.195620 12.386462 8.067229 9.836908 70.904785 -4.791719 -11.401242 21.047483 28.819833 1.707680 2.254949 -0.782181 -0.469950 0.285200 0.663510 -0.175810 
0.096070 16.952170 -1.981250 2.045684 15.686234 -4.633616 -14.493622 12.043779 3.155951 3.508106 -0.500052 -2.932419 -8.695352 4.143550 0.375947 -0.525142 4.227299 3.197294 -0.582700 -0.889180 -0.208490 18.728861 -12.174766 3.279552 -17.470748 -1.232334 -0.669066 2.763950 -5.158265 0.432360 -0.574919 -4.739830 2.584760 -0.459090 0.424240 0.328060 -5.550691 2.459671 -8.618715 15.470561 -0.508577 22.930636 -6.111281 5.635221 -10.372917 -10.855181 10.423330 -16.128208 23.107372 -12.507553 52.147410 -8.469980 -0.296900 1.865590 5.322920 -20.620554 5.387446 36.677241 -5.897538 -5.550836 131.999639 21.251570 41.014042 -4.367400 2.922292 0.726480 0.190300 0.113950 -0.178190 12.827295 10.452894 10.078605 70.265136 -2.114850 -11.762775 19.606685 29.552021 1.190111 2.231219 -0.800909 -0.466310 0.312220 0.650660 -0.164300 
0.076520 16.951240 -2.024800 1.970394 16.369168 -7.165585 -14.440429 11.798611 2.983691 4.181380 -0.145681 -0.516829 -8.937876 4.498346 1.336076 -0.515722 4.421432 3.112261 -0.506090 -0.781550 -0.160610 18.855859 -12.283713 3.256287 -17.632110 -1.727770 1.677737 2.790070 -5.473315 0.551407 -0.681447 -5.048140 2.473466 -0.387660 0.380570 0.326800 -5.813189 2.959240 -8.520887 16.640361 -0.420176 23.767037 -6.281769 6.695937 -3.345269 -10.356092 10.809290 -16.091947 24.626890 -13.693937 50.391899 -8.380020 -0.952720 -1.131640 6.300165 -23.444121 5.817352 36.592968 -6.239421 -7.598019 130.739589 21.736098 37.620281 -4.344743 2.988053 0.736570 0.167150 0.146340 -0.174030 11.758289 13.404855 10.320635 69.927100 2.483752 -11.717650 17.536854 29.764384 0.471275 2.198580 -0.836915 -0.450030 0.326600 0.619530 -0.172710 
